<?xml version="1.0" encoding="UTF-8"?>
<svg viewBox="0 0 1772 148" preserveAspectRatio="xMidYMin slice" version="1.1" xmlns="http://www.w3.org/2000/svg" xmlns:xlink="http://www.w3.org/1999/xlink">
    <g id="Artboard">
        <rect id="Rectangle" fill="#FFFFFF" x="0" y="0" width="1776" height="148"></rect>
        <path d="M0,42 C136.473958,75.9154541 285.635417,95.6001469 447.484375,101.054078 C690.257813,109.234976 941.765625,60.4374934 1177.39844,60.4374934 C1334.48698,60.4374934 1534.02083,77.8957027 1776,112.812121 L1776,226 L0,226 L0,42 Z" id="Path" fill="#BDE073"></path>
        <path d="M0,2 C171.333333,74.610708 354.375,113.703696 549.125,119.278965 C733.377465,124.553713 885.341054,105.836089 1046.34685,87.3218523 C1140.60938,76.4824987 1237.97125,65.712859 1346.72656,59.868411 C1543.07031,49.3170111 1686.16146,55.7109261 1776,79.0501559 L1776,226 L0,226 L0,2 Z" id="Path-2" fill-opacity="0.5" fill="#BDE073"></path>
        <path d="M9.85878046e-14,88.5188679 C44.8342502,79.6474489 191.32099,72.8677737 439.460219,68.1798424 C811.669062,61.1479455 1058.05084,117.327557 1306.25421,117.327557 C1471.72312,117.327557 1628.30505,94.5517047 1776,49 L1776,226 L0,226 L9.85878046e-14,88.5188679 Z" id="Path-3" fill="#9BC346"></path>
        <path d="M0,143.749502 C173.036692,113.249834 380.156211,98 621.358558,98 C983.162077,98 1213.07246,143.749502 1432,143.749502 C1577.95169,143.749502 1692.95169,132.435545 1777,109.807631 L1777,226 L0,226 L0,143.749502 Z" id="Path-4" fill="#4B7709"></path>
    </g>
</svg>